<?xml version="1.0" standalone="no"?>
<!DOCTYPE svg PUBLIC "-//W3C//DTD SVG 20010904//EN"
 "http://www.w3.org/TR/2001/REC-SVG-20010904/DTD/svg10.dtd">
<svg version="1.0" xmlns="http://www.w3.org/2000/svg"
 width="350.000000pt" height="440.000000pt" viewBox="0 0 350.000000 440.000000"
 preserveAspectRatio="xMidYMid meet">
<metadata>
Created by potrace 1.16, written by Peter Selinger 2001-2019
</metadata>
<g transform="translate(0.000000,440.000000) scale(0.070000,-0.132132)"
fill="#000000" stroke="none">
<path d="M0 1665 l0 -1665 633 2 632 3 3 22 c2 14 -3 23 -16 28 -12 3 -19 13
-18 23 4 24 -16 52 -36 52 -19 0 -23 17 -9 39 6 9 4 22 -5 36 -8 12 -11 25 -7
28 3 4 1 7 -6 7 -9 0 -9 5 -1 20 6 11 17 20 25 20 19 0 19 16 0 24 -9 3 -15 0
-15 -9 0 -8 -14 -17 -35 -21 -19 -3 -38 -10 -40 -15 -6 -9 29 -4 47 7 8 5 9 2
5 -11 -4 -9 -2 -24 4 -31 9 -11 7 -15 -5 -20 -9 -3 -14 -10 -11 -14 3 -4 -2
-10 -10 -14 -16 -6 -48 31 -39 46 3 4 1 8 -4 8 -5 0 -15 11 -22 25 -7 14 -20
25 -28 25 -9 0 -12 6 -8 16 5 12 1 14 -17 9 -22 -6 -22 -6 -2 11 20 16 19 16
-7 12 -15 -3 -25 -1 -22 4 3 5 -3 12 -14 15 -14 3 -18 11 -15 24 4 13 0 19
-10 19 -23 0 -25 33 -3 51 19 16 19 16 -5 15 -19 -1 -24 4 -24 24 0 33 -10 48
-49 71 l-31 19 27 -2 c15 -1 25 -6 22 -10 -3 -4 5 -12 16 -18 16 -8 20 -8 20
4 0 8 -6 17 -12 20 -7 4 -3 4 10 2 12 -2 19 0 16 5 -3 5 2 12 10 15 12 4 13
11 6 24 -11 21 -4 30 27 30 13 0 22 3 19 8 -16 27 60 58 93 38 8 -5 16 -4 21
4 5 8 16 9 30 5 18 -6 20 -9 9 -16 -11 -7 -10 -9 4 -9 11 0 15 -4 11 -12 -4
-7 -3 -8 4 -4 6 4 9 13 6 20 -3 7 3 19 12 27 16 12 17 12 11 -3 -7 -21 -7 -21
28 -8 16 6 24 6 20 0 -3 -5 4 -14 16 -20 17 -10 20 -9 14 1 -6 9 -2 11 13 7
12 -4 20 -3 18 0 -5 9 143 6 166 -3 9 -4 22 -4 28 0 5 3 10 1 10 -6 0 -8 4 -8
15 1 11 9 19 10 26 3 7 -7 23 -6 50 1 33 8 42 8 49 -4 8 -13 10 -12 10 3 0 19
15 23 25 7 3 -5 15 -10 26 -10 24 0 24 -8 2 -34 -18 -21 -18 -21 2 -5 11 9 30
20 43 23 12 4 22 12 22 17 0 5 20 8 45 7 37 -2 45 -7 46 -23 0 -11 3 -14 6 -7
2 6 9 12 14 12 6 0 8 -4 5 -8 -3 -5 26 -4 64 3 39 7 70 9 70 6 0 -3 5 1 11 9
6 9 12 11 15 5 2 -6 29 -10 59 -9 46 1 58 -2 70 -20 15 -20 15 -20 15 7 0 28
2 28 -97 30 -17 1 -20 4 -11 14 7 9 7 13 -1 13 -7 0 -9 5 -6 10 3 6 -3 10 -14
10 -24 0 -27 -10 -9 -28 9 -9 6 -12 -13 -12 -14 0 -30 5 -36 11 -15 15 -90 14
-109 -2 -11 -9 -17 -9 -29 1 -13 11 -13 15 -3 21 10 7 9 9 -4 9 -10 0 -18 -6
-18 -14 0 -27 -138 -23 -163 4 -10 10 -9 11 3 5 11 -6 12 -5 4 4 -9 9 -19 7
-48 -10 -23 -13 -42 -18 -54 -14 -9 5 -26 7 -37 6 -18 -1 -18 0 3 12 20 12 21
15 9 26 -9 7 -18 8 -21 2 -3 -5 0 -12 6 -14 8 -4 7 -6 -4 -6 -9 -1 -19 -7 -22
-13 -3 -7 -3 -3 0 9 4 17 1 22 -15 20 -15 -1 -17 -4 -9 -14 13 -16 8 -16 -28
-3 -23 9 -25 9 -15 -4 10 -12 8 -14 -13 -12 -15 2 -26 0 -26 -3 0 -3 -15 -5
-32 -5 -19 1 -32 7 -30 13 1 6 -2 11 -7 11 -5 0 -7 10 -4 21 6 20 7 20 18 5 7
-9 21 -16 31 -16 12 0 15 3 8 8 -6 4 -14 17 -18 30 -4 12 -11 22 -16 22 -4 0
-10 9 -13 19 -3 14 2 21 19 25 15 4 21 11 18 21 -4 11 1 15 17 15 17 0 20 3
11 9 -9 5 -13 22 -11 45 2 24 -2 41 -11 47 -13 9 -13 10 0 6 8 -2 21 3 29 11
11 10 16 11 19 3 3 -9 8 -9 19 1 12 10 17 9 24 -5 6 -9 14 -17 19 -17 17 0 60
-51 53 -63 -4 -8 -1 -8 9 1 13 10 19 10 31 -3 9 -8 20 -15 26 -15 6 0 11 -4
11 -10 0 -5 5 -10 11 -10 5 0 7 4 4 10 -11 18 10 10 28 -10 9 -11 12 -20 7
-20 -6 0 -10 -7 -10 -15 0 -8 3 -14 8 -13 4 0 15 -2 25 -7 10 -4 21 -5 24 -1
4 3 -1 6 -10 6 -10 0 -17 8 -16 18 0 9 3 12 5 5 3 -7 19 -10 42 -7 22 3 30 1
21 -3 -14 -7 -15 -10 -4 -20 10 -10 15 -9 21 5 4 9 7 20 6 24 -1 4 7 12 18 18
11 6 17 16 13 26 -3 8 -2 14 3 13 20 -3 23 2 14 26 -7 18 -6 25 3 25 7 1 5 6
-5 14 -21 15 -23 32 -6 42 7 5 9 2 6 -7 -4 -11 1 -14 26 -11 21 2 39 -3 55
-17 13 -12 30 -21 38 -21 8 0 12 -4 8 -9 -3 -5 -1 -12 5 -16 5 -3 10 -1 10 4
0 6 7 11 15 11 8 0 15 -7 15 -15 0 -8 8 -16 18 -16 9 -1 24 -2 32 -3 8 -1 20
2 25 5 6 4 27 10 47 13 29 4 39 2 47 -12 6 -9 11 -13 11 -8 0 5 -7 18 -17 28
-14 16 -14 18 0 18 11 0 16 13 19 56 1 31 0 61 -4 67 -4 6 -2 20 4 30 7 13 7
17 0 13 -11 -6 -62 38 -62 53 0 10 25 21 46 21 8 0 24 -15 35 -34 11 -19 29
-36 40 -39 12 -3 18 -10 14 -16 -3 -6 1 -11 11 -11 10 0 14 -3 11 -7 -9 -9 49
-33 79 -33 17 0 25 -7 30 -25 l6 -24 26 19 c18 13 52 22 98 26 l72 7 -5 40
c-2 23 -7 45 -10 50 -3 5 1 14 8 19 10 7 7 7 -8 3 -21 -6 -25 -1 -22 21 0 4
-5 10 -12 15 -7 4 -14 13 -15 21 -1 7 -3 20 -5 28 -3 10 5 16 24 18 19 2 27
-1 27 -13 0 -8 7 -18 15 -21 8 -4 15 -12 15 -20 0 -8 6 -14 13 -14 7 0 24 -11
38 -24 14 -13 34 -26 45 -28 10 -2 19 -10 20 -18 3 -44 4 -46 18 -27 9 11 17
14 20 8 4 -7 15 -7 31 -1 20 7 23 6 20 -8 -1 -9 3 -23 11 -30 8 -7 14 -10 14
-6 0 3 6 2 13 -4 16 -13 57 -12 57 2 0 6 5 5 12 -2 14 -14 32 -16 24 -3 -3 4
8 19 24 31 16 12 27 27 24 31 -9 15 7 31 19 21 20 -15 47 -22 47 -12 0 6 -7
10 -15 10 -8 0 -15 5 -15 10 0 6 -6 10 -12 10 -8 0 -14 16 -16 40 -1 24 2 40
8 40 6 0 9 -4 6 -9 -3 -5 1 -12 10 -15 8 -3 13 -2 10 3 -10 15 51 31 84 21 16
-5 30 -6 30 -3 0 3 11 -2 25 -11 14 -9 25 -12 25 -6 0 19 2 25 12 37 5 7 7 17
3 23 -8 14 -2 13 45 -6 22 -9 40 -20 40 -25 0 -15 48 -10 54 6 3 8 11 15 18
15 7 0 26 21 42 46 21 34 34 44 47 41 11 -3 19 -1 19 4 0 5 5 9 10 9 6 0 10
-9 10 -20 0 -24 4 -25 34 -5 34 23 81 34 97 24 9 -5 10 -9 2 -9 -6 0 -9 -8 -6
-19 3 -10 0 -22 -6 -25 -13 -9 -15 -26 -2 -26 5 0 12 13 16 29 5 23 10 28 23
24 15 -6 15 -5 3 10 -12 15 -9 21 11 18 5 0 7 4 5 11 -1 6 9 17 21 24 l24 12
-29 10 -28 10 27 1 c22 1 25 4 20 24 -5 20 -4 21 12 8 9 -8 15 -20 12 -27 -2
-7 5 -20 17 -31 20 -16 20 -16 8 0 -12 15 -12 20 -1 30 10 9 11 9 6 -1 -6 -10
-1 -11 18 -6 16 4 26 2 26 -5 0 -6 4 -11 10 -11 5 0 7 7 4 15 -4 8 -1 15 5 15
6 0 11 -7 11 -15 0 -12 5 -13 18 -7 9 5 28 8 42 7 14 -1 27 1 30 6 8 12 51 -2
44 -15 -3 -6 0 -4 8 5 7 9 19 14 26 11 7 -2 20 2 29 9 9 8 21 14 27 15 6 0 16
2 23 2 7 1 10 9 7 17 -4 9 0 15 8 15 7 0 30 8 50 18 21 11 43 16 54 11 11 -4
31 -5 45 -4 30 3 91 39 82 48 -3 4 1 7 11 7 9 0 15 4 12 9 -3 5 2 19 12 31 15
18 25 22 46 16 15 -4 25 -10 22 -15 -3 -4 9 -8 26 -9 17 0 36 -6 41 -11 18
-18 43 -12 73 17 43 41 64 85 64 136 l0 45 30 -10 c16 -6 30 -16 30 -21 0 -7
17 -9 44 -6 32 4 49 1 60 -10 12 -13 22 -14 50 -5 20 6 39 7 45 2 6 -5 9 -6 7
-3 -10 13 19 32 32 22 9 -8 12 -5 10 13 -3 20 1 23 22 21 22 -4 23 -2 10 14
-10 11 -10 15 -2 10 10 -6 12 39 12 219 -1 171 -4 225 -13 222 -7 -3 -11 -10
-10 -16 5 -20 -33 -11 -57 14 -13 14 -30 25 -37 25 -8 0 -21 7 -29 15 -9 8
-11 15 -5 15 6 0 11 7 11 16 0 8 3 13 8 11 4 -3 7 12 7 34 1 51 8 55 44 30 18
-13 32 -17 36 -11 3 5 0 10 -7 11 -7 0 2 5 20 10 l32 10 0 173 c0 166 -1 173
-20 171 -28 -2 -38 -15 -12 -15 26 0 28 -12 7 -30 -8 -7 -15 -9 -15 -5 0 4 -7
2 -15 -5 -8 -7 -15 -22 -15 -34 0 -11 -9 -32 -19 -45 -10 -14 -17 -30 -14 -37
3 -8 -8 -16 -29 -22 -30 -8 -33 -11 -33 -49 -1 -51 -18 -73 -60 -73 -42 0 -89
-35 -76 -57 11 -21 -23 -58 -61 -67 -17 -4 -25 -11 -22 -20 3 -8 -3 -16 -15
-19 -12 -3 -21 -15 -23 -33 -2 -22 -9 -30 -28 -32 -14 -2 -30 -10 -37 -19 -7
-9 -23 -21 -35 -27 -16 -8 -24 -23 -28 -51 -4 -33 -9 -39 -25 -37 -12 2 -16 0
-9 -5 18 -13 26 -67 14 -97 -9 -26 -12 -27 -57 -20 -63 9 -83 20 -83 46 0 15
5 19 19 15 18 -4 46 22 46 44 0 5 7 14 15 19 12 8 12 10 1 10 -19 0 -91 -74
-91 -94 0 -19 3 -18 -37 -7 -30 9 -32 8 -40 -27 -5 -22 -15 -37 -23 -37 -8 0
-14 5 -13 10 3 20 -36 14 -42 -6 -4 -11 -11 -17 -15 -14 -5 3 -29 -12 -53 -35
-29 -26 -54 -40 -72 -40 -15 0 -38 -9 -52 -20 -14 -11 -29 -17 -34 -14 -5 3
-9 1 -9 -5 0 -6 -88 -7 -247 -4 -137 3 -246 3 -243 1 5 -5 305 -18 423 -18 64
0 72 -12 33 -49 l-23 -22 -6 21 c-3 12 -10 19 -16 15 -6 -3 -11 -1 -11 4 0 17
-19 13 -37 -8 -11 -14 -25 -18 -47 -14 -43 6 -66 -14 -73 -65 -5 -38 -10 -45
-42 -58 -28 -12 -40 -13 -54 -4 -15 9 -23 8 -38 -6 -21 -19 -21 -19 -38 14
-14 27 -32 28 -55 3 -10 -11 -24 -17 -32 -14 -28 11 -62 -7 -72 -37 -8 -20 -8
-30 -1 -30 6 0 9 -5 7 -11 -5 -14 -74 -39 -110 -39 -14 0 -29 -5 -31 -10 -3
-6 -4 -5 -3 2 1 6 -20 24 -48 38 -46 23 -53 25 -73 12 -13 -8 -23 -23 -23 -33
0 -13 -7 -19 -24 -19 -28 0 -56 -33 -56 -67 0 -17 -7 -24 -27 -29 -16 -3 -38
-9 -50 -14 -28 -11 -93 -1 -93 15 0 33 -83 35 -96 1 -3 -8 -13 -12 -24 -9 -28
8 -57 -14 -70 -52 -10 -29 -18 -37 -53 -46 -54 -14 -90 -15 -95 0 -2 6 -9 8
-15 4 -7 -4 -6 0 1 10 8 9 10 22 6 28 -5 9 -10 5 -17 -12 -9 -23 -9 -23 -17
-4 -4 11 -11 20 -16 20 -5 1 -20 7 -33 14 -23 13 -27 11 -47 -13 -17 -20 -32
-26 -61 -26 -37 0 -38 -1 -41 -38 -1 -20 -9 -42 -18 -48 -45 -34 -144 -22
-144 17 0 11 -5 19 -11 19 -6 0 -8 -9 -3 -22 6 -20 5 -21 -8 -10 -13 10 -17
10 -22 -3 -3 -8 0 -15 6 -15 7 0 4 -6 -6 -13 -14 -10 -28 -11 -57 -3 -22 5
-39 13 -39 18 0 8 -66 2 -81 -8 -5 -3 -12 -19 -17 -37 -7 -26 -15 -34 -53 -44
-87 -26 -118 -26 -151 2 -38 32 -47 31 -81 -5 -16 -16 -35 -30 -42 -30 -8 0
-12 -8 -10 -20 4 -21 -26 -37 -46 -24 -7 4 -9 3 -6 -3 5 -9 -55 -26 -166 -48
-9 -2 -32 4 -49 12 -24 13 -35 13 -49 4 -16 -9 -19 -8 -19 9 0 11 -5 20 -10
20 -6 0 -8 -10 -5 -22 3 -13 2 -28 -2 -34 -13 -18 -101 -38 -115 -26 -7 5 -25
8 -40 6 -28 -3 -39 10 -16 19 9 3 3 15 -17 33 -16 16 -21 19 -11 7 23 -28 13
-44 -29 -41 -23 1 -31 6 -28 15 3 8 0 13 -8 11 -8 -2 -13 4 -11 13 1 10 -6 19
-18 22 -11 3 -20 1 -20 -5 0 -5 -5 -6 -10 -3 -6 4 -8 11 -5 16 3 5 -1 6 -10 2
-16 -5 -16 -4 -1 26 15 28 14 35 -4 33 -8 -1 -5 40 4 60 4 9 14 14 22 11 8 -3
12 -9 9 -13 -3 -4 2 -11 11 -14 8 -3 13 -2 10 3 -3 4 14 7 37 6 23 -1 34 0 24
2 -11 3 -16 11 -13 18 3 8 -3 17 -15 20 -10 4 -19 11 -19 16 0 6 4 7 10 4 6
-3 7 1 4 9 -4 11 0 16 12 16 14 0 15 3 6 12 -15 15 -15 28 -1 28 5 0 7 -5 3
-12 -4 -7 -3 -8 4 -4 15 9 16 7 -13 46 -23 31 -24 35 -8 49 15 15 19 14 39 -6
13 -13 29 -23 36 -23 8 0 6 5 -5 11 -19 11 -67 57 -67 64 0 16 39 1 49 -17 6
-13 9 -15 7 -6 -3 9 1 22 9 28 8 6 11 23 8 40 -3 23 0 30 11 30 14 0 21 -23
17 -55 -1 -5 6 -1 14 10 10 12 12 21 5 23 -5 2 -10 8 -10 13 0 4 8 6 18 3 14
-5 14 -4 2 4 -8 6 -19 8 -25 5 -5 -3 -5 0 1 6 9 10 17 10 32 2 23 -12 69 -15
58 -4 -4 4 -13 8 -19 9 -7 0 -20 2 -31 2 -17 2 -18 3 -1 28 14 22 15 28 4 35
-8 5 -19 7 -26 4 -7 -2 -10 2 -7 9 7 17 -50 47 -74 40 -14 -5 -13 -3 2 10 19
16 19 16 -2 16 -13 0 -22 -6 -22 -15 0 -8 -8 -15 -17 -15 -11 0 -14 3 -7 8 6
4 13 15 17 24 4 11 14 15 29 12 22 -4 22 -4 -2 6 -13 6 -34 9 -45 6 -25 -6
-58 10 -35 18 40 12 71 16 66 7 -8 -13 48 -31 65 -20 19 12 29 11 29 -2 0 -5
-4 -8 -9 -4 -15 9 -24 -16 -11 -28 10 -9 11 -9 5 2 -6 11 -4 13 7 8 11 -4 17
2 20 18 3 14 1 23 -6 22 -6 -1 -11 12 -11 31 -1 18 4 32 11 32 6 0 27 2 45 5
30 4 31 4 9 -5 -20 -8 -16 -9 23 -6 26 2 47 1 48 -3 5 -39 4 -51 -3 -51 -5 0
-6 -4 -3 -10 4 -6 -7 -10 -25 -10 -28 0 -30 -2 -20 -20 6 -11 8 -25 4 -31 -4
-6 0 -15 7 -20 10 -6 6 -9 -15 -9 -23 0 -26 3 -17 14 9 11 7 12 -13 9 -13 -3
-27 0 -30 6 -4 5 -13 8 -21 5 -22 -9 -8 -24 23 -25 23 0 24 -2 8 -8 -17 -7
-17 -8 -3 -14 9 -3 31 -3 50 0 20 3 37 1 41 -6 4 -6 0 -11 -9 -11 -9 0 -14 -4
-10 -10 3 -5 13 -7 23 -4 13 4 12 2 -3 -8 -23 -15 -29 -75 -7 -70 6 1 12 -2
12 -8 0 -5 -4 -10 -10 -10 -5 0 -10 -6 -10 -14 0 -8 -6 -17 -13 -20 -6 -3 2
-3 18 0 l30 5 -24 -14 c-14 -8 -30 -13 -37 -10 -7 2 -15 0 -18 -5 -9 -14 37
-23 47 -9 7 9 10 9 14 0 2 -7 14 -13 26 -13 21 1 21 1 4 14 -18 14 -17 15 2
21 12 3 19 10 17 14 -3 4 -6 24 -8 44 -1 28 -6 37 -20 37 -11 0 -18 7 -18 18
0 14 2 15 10 2 5 -8 12 -11 17 -7 8 8 7 56 -2 532 -5 276 -5 292 14 322 15 23
25 30 40 26 12 -3 21 -12 21 -19 0 -18 14 -18 29 0 10 12 16 12 42 -1 37 -18
53 -13 71 24 17 37 55 41 300 37 128 -2 196 0 213 8 18 8 22 14 13 19 -7 4 -9
12 -4 16 4 4 14 0 21 -10 13 -18 14 -18 27 2 7 12 18 21 24 21 7 0 15 11 18
25 4 16 13 25 26 25 11 0 20 5 20 10 0 6 7 10 15 10 8 0 15 5 15 10 0 6 9 10
20 10 11 0 20 5 20 11 0 5 5 7 10 4 6 -4 8 -10 5 -15 -3 -5 -1 -12 5 -15 15
-9 40 14 33 31 -4 10 0 12 12 8 10 -4 21 -1 26 7 5 8 9 9 9 4 0 -6 19 -12 42
-12 31 -2 39 1 28 8 -11 7 -8 8 11 4 16 -4 31 -1 40 8 8 7 19 12 25 10 6 -2
22 1 35 6 13 5 19 10 12 10 -12 1 -12 18 0 38 4 6 1 14 -5 16 -10 4 -10 6 0 6
6 1 12 9 13 19 0 13 2 12 9 -5 6 -16 18 -23 35 -23 27 0 48 -31 27 -38 -7 -2
-10 -8 -7 -12 3 -5 13 -6 21 -3 9 3 20 0 24 -7 4 -7 11 37 15 98 7 110 7 111
36 121 16 6 102 8 209 5 156 -4 180 -2 180 11 0 8 7 15 16 15 8 0 12 5 9 10
-7 11 23 9 42 -3 6 -4 14 -3 18 2 3 6 12 8 20 5 8 -3 20 -2 27 2 7 5 22 10 33
11 11 2 24 8 29 13 6 6 13 1 20 -12 6 -12 18 -24 26 -26 11 -4 11 1 -4 22 -17
27 -17 27 4 16 12 -6 28 -9 35 -6 8 3 17 0 21 -6 5 -7 2 -8 -6 -3 -9 6 -11 4
-6 -4 5 -7 14 -10 22 -7 8 3 14 0 14 -6 0 -6 3 -9 6 -6 3 4 17 0 31 -7 14 -7
31 -11 39 -8 9 3 11 -2 7 -16 -7 -27 12 -27 31 1 12 17 25 21 61 21 35 0 45 4
41 14 -3 8 -2 11 4 8 5 -3 22 8 39 24 22 21 32 26 41 17 8 -8 10 -7 5 7 -6 14
-1 17 26 19 56 3 93 -2 100 -13 4 -8 8 -7 11 2 4 11 8 10 21 -3 10 -9 26 -14
39 -11 19 4 20 3 8 -6 -12 -9 -10 -11 13 -12 39 -2 45 -3 52 -11 3 -3 20 -4
37 -1 17 2 28 1 24 -5 -3 -5 5 -7 19 -4 22 4 25 1 25 -27 0 -17 5 -31 10 -31
6 0 10 6 9 13 -4 32 2 55 17 61 8 3 12 2 9 -4 -3 -6 -2 -10 3 -10 6 0 12 7 16
15 3 8 12 15 20 15 7 0 16 10 20 23 3 12 9 18 13 12 13 -16 36 -17 30 -1 -3 8
2 16 14 19 12 3 17 11 13 20 -3 9 -13 13 -27 9 -12 -3 -19 -1 -15 3 4 5 3 13
-2 20 -7 9 0 12 28 12 20 0 60 1 87 2 104 2 110 1 96 -8 -22 -14 4 -21 30 -7
14 7 43 12 64 11 57 -2 86 7 76 24 -7 10 -13 11 -29 2 -27 -15 -65 -14 -81 2
-11 10 -12 9 -7 -1 6 -11 -10 -13 -81 -10 -48 2 -86 6 -83 9 9 11 -23 40 -37
34 -9 -3 -13 0 -11 7 3 7 11 13 19 14 35 2 40 5 34 15 -8 13 32 49 55 49 9 0
27 -9 40 -20 26 -23 50 -26 50 -7 0 8 3 7 10 -3 7 -12 11 -10 19 10 l10 25 0
-24 1 -24 26 29 c15 16 23 23 19 16 -6 -12 -3 -12 15 -2 14 8 19 15 12 19 -7
4 -4 11 8 19 17 10 18 9 14 -6 -4 -13 -1 -11 14 6 21 23 38 30 26 11 -5 -8 -1
-8 14 0 12 6 24 15 27 21 3 5 13 6 22 3 24 -9 52 -40 45 -48 -4 -4 0 -6 8 -4
23 4 72 -20 65 -31 -11 -17 7 -11 21 8 9 11 13 12 14 4 0 -7 11 -24 24 -37
l24 -24 43 32 c24 17 38 24 31 15 -10 -13 -10 -17 0 -22 7 -3 2 -3 -11 0 -19
5 -23 3 -18 -10 4 -9 1 -16 -5 -16 -6 0 -8 -3 -5 -6 4 -4 13 -1 22 6 12 10 15
10 15 -5 0 -13 -6 -16 -22 -12 -13 3 -33 8 -44 10 -23 6 -74 -37 -61 -50 4 -3
15 3 24 14 13 14 24 17 43 12 14 -4 19 -7 12 -8 -7 -1 -10 -5 -7 -11 3 -5 25
-7 48 -5 109 12 187 13 181 3 -4 -6 -2 -8 4 -4 12 7 14 96 2 96 -14 0 -21 -32
-10 -45 6 -7 7 -15 3 -17 -19 -11 -96 -8 -111 4 -12 10 -14 10 -8 1 4 -8 1
-13 -8 -13 -9 0 -13 6 -10 14 3 8 -2 16 -13 19 -14 4 -15 5 -2 6 9 0 20 11 23
24 7 21 7 21 16 2 5 -11 9 -14 9 -7 1 7 5 11 10 7 5 -3 12 -1 16 5 3 5 1 10
-5 10 -6 0 -8 4 -5 10 4 6 13 5 25 -2 14 -9 22 -9 36 3 16 13 17 12 11 -5 -6
-14 -4 -17 9 -12 8 3 18 6 20 6 2 0 4 27 4 60 l0 60 -2500 0 -2500 0 0 -1665z
m1683 1292 c43 -20 51 -21 42 -7 -3 6 3 10 14 10 12 0 21 6 21 13 0 11 58 15
138 8 6 -1 12 -10 12 -21 0 -12 7 -20 18 -20 16 -1 16 -1 0 -11 -10 -5 -18
-17 -18 -26 0 -13 -3 -13 -15 -3 -8 7 -12 17 -9 22 4 7 -6 8 -27 3 -52 -11
-54 -11 -52 2 3 15 -40 28 -63 19 -9 -3 -18 -15 -21 -26 -3 -11 -13 -20 -23
-20 -10 0 -32 -14 -49 -31 -27 -26 -31 -36 -25 -64 4 -25 2 -34 -12 -39 -10
-4 -21 -1 -25 5 -4 6 -12 8 -18 5 -6 -4 -15 4 -21 19 -5 14 -18 28 -27 32 -10
4 -20 10 -23 14 -9 12 -75 -25 -85 -49 -6 -14 -18 -22 -35 -22 -15 0 -31 -9
-38 -20 -7 -12 -17 -18 -22 -15 -6 3 -7 -1 -3 -11 5 -13 2 -15 -18 -9 -32 10
-30 6 -36 72 -5 55 -4 57 12 38 9 -11 14 -14 10 -7 -4 7 0 12 11 12 14 0 15 2
3 17 -10 11 -10 14 -1 9 6 -4 12 -2 12 3 0 6 9 10 21 8 12 -1 26 6 32 15 16
24 2 34 -19 14 -12 -13 -19 -14 -30 -5 -8 6 -14 17 -13 23 0 6 5 4 11 -5 10
-15 13 -14 35 4 17 16 20 23 11 30 -9 6 -5 7 10 4 17 -4 22 -2 18 8 -3 9 0 12
8 9 19 -7 32 16 15 27 -11 7 -10 9 4 9 9 0 17 -7 17 -15 0 -8 7 -15 15 -15 8
0 25 -6 36 -12 17 -10 23 -10 26 -1 2 7 11 9 19 6 26 -10 64 6 64 28 0 20 0
20 28 2 15 -10 44 -26 65 -36z m-522 -2057 c5 0 9 -6 9 -13 0 -14 -35 -47 -50
-47 -6 0 -10 -4 -10 -9 0 -12 30 -7 38 6 4 6 20 15 35 18 20 5 27 4 27 -8 0
-8 7 -20 15 -27 8 -7 13 -16 10 -20 -3 -4 2 -11 11 -14 9 -4 12 -11 7 -18 -4
-7 -8 -16 -9 -20 -1 -5 -2 -11 -3 -15 -1 -5 -6 0 -12 10 -13 23 -45 22 -52 -2
-4 -15 -12 -19 -33 -16 -16 1 -28 8 -27 14 2 5 -3 8 -11 5 -7 -3 -16 1 -19 8
-3 9 3 14 17 16 11 0 32 4 44 7 18 4 22 2 16 -7 -6 -10 -5 -10 7 -1 8 7 14 25
13 40 0 15 4 32 10 36 7 6 6 7 -4 4 -8 -2 -16 -9 -16 -15 -1 -7 -3 -15 -4 -19
-1 -5 -2 -11 -2 -14 1 -4 -7 -5 -17 -2 -10 3 -22 0 -25 -6 -11 -17 -43 -13
-50 6 -6 15 -9 15 -17 3 -9 -13 -10 -13 -6 1 3 9 0 22 -6 29 -10 10 -8 10 10
1 12 -6 24 -11 27 -11 10 0 6 44 -4 60 -7 12 -3 16 18 21 15 4 33 5 40 3 8 -2
18 -4 23 -4z m-201 -655 c-12 -31 5 -43 29 -21 13 12 20 13 29 4 7 -7 12 -9
12 -5 0 4 14 -5 30 -20 39 -34 38 -43 -6 -43 -22 0 -33 -4 -29 -11 4 -6 13 -8
21 -5 8 3 11 0 7 -10 -3 -8 -11 -13 -18 -10 -7 2 -18 -1 -25 -7 -10 -9 -12 -8
-7 5 7 19 -23 35 -34 17 -4 -6 -11 -9 -17 -5 -5 3 -12 0 -15 -8 -4 -9 -14 -12
-25 -9 -13 3 -29 -4 -43 -18 -16 -16 -21 -17 -16 -6 3 9 2 17 -4 17 -6 0 -8 4
-5 9 3 5 -10 7 -30 4 -25 -3 -34 -2 -30 6 4 6 12 9 17 6 5 -4 9 -2 9 2 0 5 12
9 28 9 17 -1 26 4 24 12 -1 8 2 11 8 7 6 -4 18 -1 26 6 19 16 30 4 14 -16 -8
-10 -9 -15 -1 -15 6 0 11 5 11 11 0 6 7 9 15 5 28 -10 15 13 -15 29 -31 16
-42 32 -15 21 11 -4 22 6 36 29 24 41 32 45 19 10z"/>
<path d="M2562 1597 l-2 -167 -322 6 c-178 4 -321 4 -318 2 7 -8 187 -17 437
-22 l223 -5 -4 22 c-2 12 1 28 6 35 6 7 7 12 1 12 -5 0 -10 29 -10 65 -1 44 2
63 9 59 7 -5 8 -2 2 7 -5 8 -12 46 -15 84 -4 49 -6 19 -7 -98z"/>
<path d="M1169 1438 c-7 -25 -7 -48 0 -44 5 4 11 1 13 -5 2 -6 20 -11 41 -12
29 -1 37 -5 37 -19 0 -16 2 -17 14 -6 10 10 11 15 2 21 -6 5 10 6 37 4 26 -3
47 -1 47 4 0 5 5 9 11 9 5 0 7 -6 3 -12 -4 -7 2 -5 13 5 11 10 27 15 37 11 9
-3 22 -2 29 4 15 13 78 19 94 9 6 -4 13 -2 15 4 2 6 28 14 58 19 37 5 -29 8
-197 9 -139 0 -253 0 -254 -1z"/>
<path d="M4235 441 c10 -10 -19 -31 -44 -31 -28 -1 -100 -64 -87 -77 4 -4 25
-7 46 -7 31 1 39 -3 44 -19 3 -12 3 -23 1 -26 -3 -2 -5 1 -5 8 0 7 -4 9 -10 6
-16 -10 -11 -25 9 -25 13 0 20 -10 25 -31 9 -49 8 -57 -14 -64 -11 -3 -20 -13
-20 -22 0 -11 -5 -13 -17 -7 -27 11 -131 16 -113 4 13 -8 13 -13 -2 -38 l-17
-29 46 -41 46 -42 254 0 c218 0 253 2 253 15 0 8 5 15 11 15 5 0 7 5 3 11 -3
6 0 15 7 20 11 7 11 9 -3 9 -9 0 -20 -9 -23 -21 -7 -19 -8 -20 -26 -3 -11 9
-17 20 -14 23 4 3 10 0 14 -8 7 -10 9 -10 14 1 3 9 -3 14 -16 16 -12 0 -27 8
-33 17 -6 8 -14 15 -17 15 -16 0 -83 54 -95 76 -15 28 -30 30 -58 9 -10 -8
-29 -15 -41 -15 -14 0 -23 -6 -23 -15 0 -8 -5 -15 -11 -15 -6 0 -8 -9 -4 -22
6 -19 0 -16 -29 15 -22 23 -36 47 -36 63 l0 25 31 -22 c24 -17 33 -19 39 -9 4
7 13 9 19 6 6 -4 11 -4 10 1 -4 21 3 32 30 43 32 13 81 60 63 60 -6 0 -9 6 -6
13 4 12 -32 37 -64 43 -8 1 -22 10 -31 18 -10 9 -22 16 -28 16 -6 0 -18 11
-27 24 -9 14 -24 24 -35 23 -11 -1 -18 -3 -16 -6z"/>
<path d="M2290 296 l0 -96 95 0 95 0 0 90 0 90 -27 0 c-16 0 -58 3 -95 7 l-68
6 0 -97z"/>
</g>
</svg>
